<?xml version="1.0" encoding="UTF-8" standalone="no"?><svg xmlns="http://www.w3.org/2000/svg" xmlns:xlink="http://www.w3.org/1999/xlink" contentStyleType="text/css" height="524px" preserveAspectRatio="none" style="width:1030px;height:524px;background:#FFFFFF;" version="1.1" viewBox="0 0 1030 524" width="1030px" zoomAndPan="magnify"><defs/><g><!--MD5=[4e327b0bfdb3c70be279a7a088f47fd3]
class Magician--><g id="elem_Magician"><rect codeLine="2" fill="#F1F1F1" height="145.7813" id="Magician" rx="2.5" ry="2.5" style="stroke:#181818;stroke-width:0.5;" width="179" x="299" y="165"/><ellipse cx="354.25" cy="181" fill="#ADD1B2" rx="11" ry="11" style="stroke:#181818;stroke-width:1.0;"/><path d="M357.2188,186.6406 Q356.6406,186.9375 356,187.0781 Q355.3594,187.2344 354.6563,187.2344 Q352.1563,187.2344 350.8281,185.5938 Q349.5156,183.9375 349.5156,180.8125 Q349.5156,177.6875 350.8281,176.0313 Q352.1563,174.375 354.6563,174.375 Q355.3594,174.375 356,174.5313 Q356.6563,174.6875 357.2188,174.9844 L357.2188,177.7031 Q356.5938,177.125 356,176.8594 Q355.4063,176.5781 354.7813,176.5781 Q353.4375,176.5781 352.75,177.6563 Q352.0625,178.7188 352.0625,180.8125 Q352.0625,182.9063 352.75,183.9844 Q353.4375,185.0469 354.7813,185.0469 Q355.4063,185.0469 356,184.7813 Q356.5938,184.5 357.2188,183.9219 L357.2188,186.6406 Z " fill="#000000"/><text fill="#000000" font-family="sans-serif" font-size="14" lengthAdjust="spacing" textLength="60" x="374.75" y="185.8467">Magician</text><line style="stroke:#181818;stroke-width:0.5;" x1="300" x2="477" y1="197" y2="197"/><rect fill="none" height="6" style="stroke:#C82930;stroke-width:1.0;" width="6" x="307" y="205"/><text fill="#000000" font-family="sans-serif" font-size="14" lengthAdjust="spacing" textLength="87" x="319" y="213.9951">name: string</text><rect fill="none" height="6" style="stroke:#C82930;stroke-width:1.0;" width="6" x="307" y="221.2969"/><text fill="#000000" font-family="sans-serif" font-size="14" lengthAdjust="spacing" textLength="146" x="319" y="230.292">experiencePoints: int</text><rect fill="none" height="6" style="stroke:#C82930;stroke-width:1.0;" width="6" x="307" y="237.5938"/><text fill="#000000" font-family="sans-serif" font-size="14" lengthAdjust="spacing" textLength="84" x="319" y="246.5889">lifePoints:int</text><rect fill="none" height="6" style="stroke:#C82930;stroke-width:1.0;" width="6" x="307" y="253.8906"/><text fill="#000000" font-family="sans-serif" font-size="14" lengthAdjust="spacing" textLength="83" x="319" y="262.8857">spells: Array</text><line style="stroke:#181818;stroke-width:0.5;" x1="300" x2="477" y1="270.1875" y2="270.1875"/><ellipse cx="310" cy="281.1875" fill="#84BE84" rx="3" ry="3" style="stroke:#038048;stroke-width:1.0;"/><text fill="#000000" font-family="sans-serif" font-size="14" lengthAdjust="spacing" textLength="153" x="319" y="287.1826">Magician(String name)</text><ellipse cx="310" cy="297.4844" fill="#84BE84" rx="3" ry="3" style="stroke:#038048;stroke-width:1.0;"/><text fill="#000000" font-family="sans-serif" font-size="14" lengthAdjust="spacing" textLength="68" x="319" y="303.4795">getLevel()</text></g><!--MD5=[2bac9acdba1ab0f95f9619b76a51f1c4]
class MagicAdventureApp--><g id="elem_MagicAdventureApp"><rect codeLine="11" fill="#F1F1F1" height="64.2969" id="MagicAdventureApp" rx="2.5" ry="2.5" style="stroke:#181818;stroke-width:0.5;" width="182" x="513.5" y="206"/><ellipse cx="533.9" cy="222" fill="#ADD1B2" rx="11" ry="11" style="stroke:#181818;stroke-width:1.0;"/><path d="M536.8688,227.6406 Q536.2906,227.9375 535.65,228.0781 Q535.0094,228.2344 534.3063,228.2344 Q531.8063,228.2344 530.4781,226.5938 Q529.1656,224.9375 529.1656,221.8125 Q529.1656,218.6875 530.4781,217.0313 Q531.8063,215.375 534.3063,215.375 Q535.0094,215.375 535.65,215.5313 Q536.3063,215.6875 536.8688,215.9844 L536.8688,218.7031 Q536.2438,218.125 535.65,217.8594 Q535.0563,217.5781 534.4313,217.5781 Q533.0875,217.5781 532.4,218.6563 Q531.7125,219.7188 531.7125,221.8125 Q531.7125,223.9063 532.4,224.9844 Q533.0875,226.0469 534.4313,226.0469 Q535.0563,226.0469 535.65,225.7813 Q536.2438,225.5 536.8688,224.9219 L536.8688,227.6406 Z " fill="#000000"/><text fill="#000000" font-family="sans-serif" font-size="14" lengthAdjust="spacing" textLength="138" x="549.1" y="226.8467">MagicAdventureApp</text><line style="stroke:#181818;stroke-width:0.5;" x1="514.5" x2="694.5" y1="238" y2="238"/><line style="stroke:#181818;stroke-width:0.5;" x1="514.5" x2="694.5" y1="246" y2="246"/><ellipse cx="524.5" cy="257" fill="#84BE84" rx="3" ry="3" style="stroke:#038048;stroke-width:1.0;"/><text fill="#000000" font-family="sans-serif" font-size="14" lengthAdjust="spacing" textLength="156" x="533.5" y="262.9951">main() starts the game</text></g><!--MD5=[2852b5923301941ca5ddb940c0bde7e0]
class Spell--><g id="elem_Spell"><rect codeLine="14" fill="#F1F1F1" height="129.4844" id="Spell" rx="2.5" ry="2.5" style="stroke:#181818;stroke-width:0.5;" width="150" x="133.5" y="388"/><ellipse cx="187.75" cy="404" fill="#A9DCDF" rx="11" ry="11" style="stroke:#181818;stroke-width:1.0;"/><path d="M187.8594,399.3438 L186.7031,404.4219 L189.0313,404.4219 L187.8594,399.3438 Z M186.375,397.1094 L189.3594,397.1094 L192.7188,409.5 L190.2656,409.5 L189.5,406.4375 L186.2188,406.4375 L185.4688,409.5 L183.0313,409.5 L186.375,397.1094 Z " fill="#000000"/><text fill="#000000" font-family="sans-serif" font-size="14" font-style="italic" lengthAdjust="spacing" textLength="33" x="208.25" y="408.8467">Spell</text><line style="stroke:#181818;stroke-width:0.5;" x1="134.5" x2="282.5" y1="420" y2="420"/><rect fill="none" height="6" style="stroke:#C82930;stroke-width:1.0;" width="6" x="141.5" y="428"/><text fill="#000000" font-family="sans-serif" font-size="14" lengthAdjust="spacing" textLength="124" x="153.5" y="436.9951">incantation: string</text><rect fill="none" height="6" style="stroke:#C82930;stroke-width:1.0;" width="6" x="141.5" y="444.2969"/><text fill="#000000" font-family="sans-serif" font-size="14" lengthAdjust="spacing" textLength="57" x="153.5" y="453.292">level: int</text><rect fill="none" height="6" style="stroke:#C82930;stroke-width:1.0;" width="6" x="141.5" y="460.5938"/><text fill="#000000" font-family="sans-serif" font-size="14" lengthAdjust="spacing" textLength="82" x="153.5" y="469.5889">damage: int</text><rect fill="none" height="6" style="stroke:#C82930;stroke-width:1.0;" width="6" x="141.5" y="476.8906"/><text fill="#000000" font-family="sans-serif" font-size="14" lengthAdjust="spacing" textLength="113" x="153.5" y="485.8857">hitProbability: int</text><line style="stroke:#181818;stroke-width:0.5;" x1="134.5" x2="282.5" y1="493.1875" y2="493.1875"/><ellipse cx="144.5" cy="504.1875" fill="#84BE84" rx="3" ry="3" style="stroke:#038048;stroke-width:1.0;"/><text fill="#000000" font-family="sans-serif" font-size="14" lengthAdjust="spacing" textLength="40" x="153.5" y="510.1826">train()</text></g><!--MD5=[2678ab325370a390fd301b6559fb36a9]
class SpellClass1--><g id="elem_SpellClass1"><rect codeLine="22" fill="#F1F1F1" height="48" id="SpellClass1" rx="2.5" ry="2.5" style="stroke:#181818;stroke-width:0.5;" width="111" x="7" y="214"/><ellipse cx="22" cy="230" fill="#ADD1B2" rx="11" ry="11" style="stroke:#181818;stroke-width:1.0;"/><path d="M24.9688,235.6406 Q24.3906,235.9375 23.75,236.0781 Q23.1094,236.2344 22.4063,236.2344 Q19.9063,236.2344 18.5781,234.5938 Q17.2656,232.9375 17.2656,229.8125 Q17.2656,226.6875 18.5781,225.0313 Q19.9063,223.375 22.4063,223.375 Q23.1094,223.375 23.75,223.5313 Q24.4063,223.6875 24.9688,223.9844 L24.9688,226.7031 Q24.3438,226.125 23.75,225.8594 Q23.1563,225.5781 22.5313,225.5781 Q21.1875,225.5781 20.5,226.6563 Q19.8125,227.7188 19.8125,229.8125 Q19.8125,231.9063 20.5,232.9844 Q21.1875,234.0469 22.5313,234.0469 Q23.1563,234.0469 23.75,233.7813 Q24.3438,233.5 24.9688,232.9219 L24.9688,235.6406 Z " fill="#000000"/><text fill="#000000" font-family="sans-serif" font-size="14" lengthAdjust="spacing" textLength="79" x="36" y="234.8467">SpellClass1</text><line style="stroke:#181818;stroke-width:0.5;" x1="8" x2="117" y1="246" y2="246"/><line style="stroke:#181818;stroke-width:0.5;" x1="8" x2="117" y1="254" y2="254"/></g><!--MD5=[ff05f6c0d7a16444d377292527578500]
class SpellClass2--><g id="elem_SpellClass2"><rect codeLine="23" fill="#F1F1F1" height="48" id="SpellClass2" rx="2.5" ry="2.5" style="stroke:#181818;stroke-width:0.5;" width="111" x="153" y="214"/><ellipse cx="168" cy="230" fill="#ADD1B2" rx="11" ry="11" style="stroke:#181818;stroke-width:1.0;"/><path d="M170.9688,235.6406 Q170.3906,235.9375 169.75,236.0781 Q169.1094,236.2344 168.4063,236.2344 Q165.9063,236.2344 164.5781,234.5938 Q163.2656,232.9375 163.2656,229.8125 Q163.2656,226.6875 164.5781,225.0313 Q165.9063,223.375 168.4063,223.375 Q169.1094,223.375 169.75,223.5313 Q170.4063,223.6875 170.9688,223.9844 L170.9688,226.7031 Q170.3438,226.125 169.75,225.8594 Q169.1563,225.5781 168.5313,225.5781 Q167.1875,225.5781 166.5,226.6563 Q165.8125,227.7188 165.8125,229.8125 Q165.8125,231.9063 166.5,232.9844 Q167.1875,234.0469 168.5313,234.0469 Q169.1563,234.0469 169.75,233.7813 Q170.3438,233.5 170.9688,232.9219 L170.9688,235.6406 Z " fill="#000000"/><text fill="#000000" font-family="sans-serif" font-size="14" lengthAdjust="spacing" textLength="79" x="182" y="234.8467">SpellClass2</text><line style="stroke:#181818;stroke-width:0.5;" x1="154" x2="263" y1="246" y2="246"/><line style="stroke:#181818;stroke-width:0.5;" x1="154" x2="263" y1="254" y2="254"/></g><!--MD5=[35f5f7c9ca2ba66868873a828498e134]
class MasterWizard--><g id="elem_MasterWizard"><rect codeLine="24" fill="#F1F1F1" height="80.5938" id="MasterWizard" rx="2.5" ry="2.5" style="stroke:#181818;stroke-width:0.5;" width="140" x="318.5" y="7"/><ellipse cx="340.25" cy="23" fill="#ADD1B2" rx="11" ry="11" style="stroke:#181818;stroke-width:1.0;"/><path d="M343.2188,28.6406 Q342.6406,28.9375 342,29.0781 Q341.3594,29.2344 340.6563,29.2344 Q338.1563,29.2344 336.8281,27.5938 Q335.5156,25.9375 335.5156,22.8125 Q335.5156,19.6875 336.8281,18.0313 Q338.1563,16.375 340.6563,16.375 Q341.3594,16.375 342,16.5313 Q342.6563,16.6875 343.2188,16.9844 L343.2188,19.7031 Q342.5938,19.125 342,18.8594 Q341.4063,18.5781 340.7813,18.5781 Q339.4375,18.5781 338.75,19.6563 Q338.0625,20.7188 338.0625,22.8125 Q338.0625,24.9063 338.75,25.9844 Q339.4375,27.0469 340.7813,27.0469 Q341.4063,27.0469 342,26.7813 Q342.5938,26.5 343.2188,25.9219 L343.2188,28.6406 Z " fill="#000000"/><text fill="#000000" font-family="sans-serif" font-size="14" lengthAdjust="spacing" textLength="93" x="355.75" y="27.8467">MasterWizard</text><line style="stroke:#181818;stroke-width:0.5;" x1="319.5" x2="457.5" y1="39" y2="39"/><line style="stroke:#181818;stroke-width:0.5;" x1="319.5" x2="457.5" y1="47" y2="47"/><ellipse cx="329.5" cy="58" fill="#84BE84" rx="3" ry="3" style="stroke:#038048;stroke-width:1.0;"/><text fill="#000000" font-family="sans-serif" font-size="14" lengthAdjust="spacing" textLength="114" x="338.5" y="63.9951">create(Magician)</text><ellipse cx="329.5" cy="74.2969" fill="#84BE84" rx="3" ry="3" style="stroke:#038048;stroke-width:1.0;"/><text fill="#000000" font-family="sans-serif" font-size="14" lengthAdjust="spacing" textLength="109" x="338.5" y="80.292">teach(Magician)</text></g><!--MD5=[3ba4f8446d49c0c74e1a1e50e7fce391]
class MagicGame--><g id="elem_MagicGame"><rect codeLine="28" fill="#F1F1F1" height="80.5938" id="MagicGame" rx="2.5" ry="2.5" style="stroke:#181818;stroke-width:0.5;" width="177" x="605" y="7"/><ellipse cx="648.8" cy="23" fill="#ADD1B2" rx="11" ry="11" style="stroke:#181818;stroke-width:1.0;"/><path d="M651.7688,28.6406 Q651.1906,28.9375 650.55,29.0781 Q649.9094,29.2344 649.2063,29.2344 Q646.7063,29.2344 645.3781,27.5938 Q644.0656,25.9375 644.0656,22.8125 Q644.0656,19.6875 645.3781,18.0313 Q646.7063,16.375 649.2063,16.375 Q649.9094,16.375 650.55,16.5313 Q651.2063,16.6875 651.7688,16.9844 L651.7688,19.7031 Q651.1438,19.125 650.55,18.8594 Q649.9563,18.5781 649.3313,18.5781 Q647.9875,18.5781 647.3,19.6563 Q646.6125,20.7188 646.6125,22.8125 Q646.6125,24.9063 647.3,25.9844 Q647.9875,27.0469 649.3313,27.0469 Q649.9563,27.0469 650.55,26.7813 Q651.1438,26.5 651.7688,25.9219 L651.7688,28.6406 Z " fill="#000000"/><text fill="#000000" font-family="sans-serif" font-size="14" lengthAdjust="spacing" textLength="81" x="669.2" y="27.8467">MagicGame</text><line style="stroke:#181818;stroke-width:0.5;" x1="606" x2="781" y1="39" y2="39"/><rect fill="none" height="6" style="stroke:#C82930;stroke-width:1.0;" width="6" x="613" y="47"/><text fill="#000000" font-family="sans-serif" font-size="14" lengthAdjust="spacing" textLength="61" x="625" y="55.9951">magician</text><line style="stroke:#181818;stroke-width:0.5;" x1="606" x2="781" y1="63.2969" y2="63.2969"/><ellipse cx="616" cy="74.2969" fill="#84BE84" rx="3" ry="3" style="stroke:#038048;stroke-width:1.0;"/><text fill="#000000" font-family="sans-serif" font-size="14" lengthAdjust="spacing" textLength="151" x="625" y="80.292">MagicGame(Magician)</text></g><!--MD5=[c0aad78264ddd70947ad708086fa83ba]
class Stopwatch--><g id="elem_Stopwatch"><rect codeLine="33" fill="#F1F1F1" height="129.4844" id="Stopwatch" rx="2.5" ry="2.5" style="stroke:#181818;stroke-width:0.5;" width="105" x="731" y="173.5"/><ellipse cx="746" cy="189.5" fill="#ADD1B2" rx="11" ry="11" style="stroke:#181818;stroke-width:1.0;"/><path d="M748.9688,195.1406 Q748.3906,195.4375 747.75,195.5781 Q747.1094,195.7344 746.4063,195.7344 Q743.9063,195.7344 742.5781,194.0938 Q741.2656,192.4375 741.2656,189.3125 Q741.2656,186.1875 742.5781,184.5313 Q743.9063,182.875 746.4063,182.875 Q747.1094,182.875 747.75,183.0313 Q748.4063,183.1875 748.9688,183.4844 L748.9688,186.2031 Q748.3438,185.625 747.75,185.3594 Q747.1563,185.0781 746.5313,185.0781 Q745.1875,185.0781 744.5,186.1563 Q743.8125,187.2188 743.8125,189.3125 Q743.8125,191.4063 744.5,192.4844 Q745.1875,193.5469 746.5313,193.5469 Q747.1563,193.5469 747.75,193.2813 Q748.3438,193 748.9688,192.4219 L748.9688,195.1406 Z " fill="#000000"/><text fill="#000000" font-family="sans-serif" font-size="14" lengthAdjust="spacing" textLength="73" x="760" y="194.3467">Stopwatch</text><line style="stroke:#181818;stroke-width:0.5;" x1="732" x2="835" y1="205.5" y2="205.5"/><rect fill="none" height="6" style="stroke:#C82930;stroke-width:1.0;" width="6" x="739" y="213.5"/><text fill="#000000" font-family="sans-serif" font-size="14" lengthAdjust="spacing" textLength="31" x="751" y="222.4951">start</text><rect fill="none" height="6" style="stroke:#C82930;stroke-width:1.0;" width="6" x="739" y="229.7969"/><text fill="#000000" font-family="sans-serif" font-size="14" lengthAdjust="spacing" textLength="27" x="751" y="238.792">end</text><line style="stroke:#181818;stroke-width:0.5;" x1="732" x2="835" y1="246.0938" y2="246.0938"/><ellipse cx="742" cy="257.0938" fill="#84BE84" rx="3" ry="3" style="stroke:#038048;stroke-width:1.0;"/><text fill="#000000" font-family="sans-serif" font-size="14" lengthAdjust="spacing" textLength="41" x="751" y="263.0889">start()</text><ellipse cx="742" cy="273.3906" fill="#84BE84" rx="3" ry="3" style="stroke:#038048;stroke-width:1.0;"/><text fill="#000000" font-family="sans-serif" font-size="14" lengthAdjust="spacing" textLength="41" x="751" y="279.3857">stop()</text><ellipse cx="742" cy="289.6875" fill="#84BE84" rx="3" ry="3" style="stroke:#038048;stroke-width:1.0;"/><text fill="#000000" font-family="sans-serif" font-size="14" lengthAdjust="spacing" textLength="55" x="751" y="295.6826">getDiff()</text></g><!--MD5=[d2c4278637bdc93ab6ebd71329cfa63c]
class Monster--><g id="elem_Monster"><rect codeLine="41" fill="#F1F1F1" height="113.1875" id="Monster" rx="2.5" ry="2.5" style="stroke:#181818;stroke-width:0.5;" width="152" x="871.5" y="181.5"/><ellipse cx="914.85" cy="197.5" fill="#ADD1B2" rx="11" ry="11" style="stroke:#181818;stroke-width:1.0;"/><path d="M917.8188,203.1406 Q917.2406,203.4375 916.6,203.5781 Q915.9594,203.7344 915.2563,203.7344 Q912.7563,203.7344 911.4281,202.0938 Q910.1156,200.4375 910.1156,197.3125 Q910.1156,194.1875 911.4281,192.5313 Q912.7563,190.875 915.2563,190.875 Q915.9594,190.875 916.6,191.0313 Q917.2563,191.1875 917.8188,191.4844 L917.8188,194.2031 Q917.1938,193.625 916.6,193.3594 Q916.0063,193.0781 915.3813,193.0781 Q914.0375,193.0781 913.35,194.1563 Q912.6625,195.2188 912.6625,197.3125 Q912.6625,199.4063 913.35,200.4844 Q914.0375,201.5469 915.3813,201.5469 Q916.0063,201.5469 916.6,201.2813 Q917.1938,201 917.8188,200.4219 L917.8188,203.1406 Z " fill="#000000"/><text fill="#000000" font-family="sans-serif" font-size="14" lengthAdjust="spacing" textLength="57" x="935.15" y="202.3467">Monster</text><line style="stroke:#181818;stroke-width:0.5;" x1="872.5" x2="1022.5" y1="213.5" y2="213.5"/><rect fill="none" height="6" style="stroke:#C82930;stroke-width:1.0;" width="6" x="879.5" y="221.5"/><text fill="#000000" font-family="sans-serif" font-size="14" lengthAdjust="spacing" textLength="87" x="891.5" y="230.4951">name: string</text><rect fill="none" height="6" style="stroke:#C82930;stroke-width:1.0;" width="6" x="879.5" y="237.7969"/><text fill="#000000" font-family="sans-serif" font-size="14" lengthAdjust="spacing" textLength="57" x="891.5" y="246.792">level: int</text><rect fill="none" height="6" style="stroke:#C82930;stroke-width:1.0;" width="6" x="879.5" y="254.0938"/><text fill="#000000" font-family="sans-serif" font-size="14" lengthAdjust="spacing" textLength="88" x="891.5" y="263.0889">lifePoints: int</text><rect fill="none" height="6" style="stroke:#C82930;stroke-width:1.0;" width="6" x="879.5" y="270.3906"/><text fill="#000000" font-family="sans-serif" font-size="14" lengthAdjust="spacing" textLength="126" x="891.5" y="279.3857">attackDamage: int</text><line style="stroke:#181818;stroke-width:0.5;" x1="872.5" x2="1022.5" y1="286.6875" y2="286.6875"/></g><!--MD5=[05c56ae6177990ef9dcc3491da196482]
link MasterWizard to Magician--><g id="link_MasterWizard_Magician"><path codeLine="50" d="M388.5,88.02 C388.5,108.78 388.5,134.96 388.5,159.57 " fill="none" id="MasterWizard-to-Magician" style="stroke:#181818;stroke-width:1.0;stroke-dasharray:7.0,7.0;"/><polygon fill="#181818" points="388.5,164.79,392.5,155.79,388.5,159.79,384.5,155.79,388.5,164.79" style="stroke:#181818;stroke-width:1.0;"/><text fill="#000000" font-family="sans-serif" font-size="13" lengthAdjust="spacing" textLength="118" x="389.5" y="131.0669">creates &amp; teaches</text></g><!--MD5=[2df103369dde9a4172a0b33e3af2d55a]
link MagicGame to Monster--><g id="link_MagicGame_Monster"><path codeLine="51" d="M748.54,88.07 C779.51,110.47 818.81,139.09 853.5,165 C859.25,169.3 865.19,173.76 871.15,178.27 " fill="none" id="MagicGame-to-Monster" style="stroke:#181818;stroke-width:1.0;stroke-dasharray:7.0,7.0;"/><polygon fill="#181818" points="875.27,181.4,870.5045,172.7809,871.282,178.384,865.6789,179.1616,875.27,181.4" style="stroke:#181818;stroke-width:1.0;"/><text fill="#000000" font-family="sans-serif" font-size="13" lengthAdjust="spacing" textLength="48" x="811.5" y="131.0669">creates</text></g><!--MD5=[c2ff89c770de1b167a570c57847db7a3]
link MagicGame to Magician--><g id="link_MagicGame_Magician"><path codeLine="52" d="M613.317,94.2061 C613.317,94.2061 533.41,141.12 495.5,165 C493.46,166.29 491.4,167.59 489.32,168.91 " fill="none" id="MagicGame-Magician" style="stroke:#181818;stroke-width:1.0;"/><polygon fill="#181818" points="478.15,176.1,487.8842,174.6018,482.357,173.3979,483.5608,167.8706,478.15,176.1" style="stroke:#181818;stroke-width:1.0;"/><line style="stroke:#181818;stroke-width:1.0;" x1="482.357" x2="489.08" y1="173.3979" y2="169.07"/><polygon fill="#181818" points="623.7,88.19,616.5031,87.737,613.317,94.2061,620.5139,94.659,623.7,88.19" style="stroke:#181818;stroke-width:1.0;"/><text fill="#000000" font-family="sans-serif" font-size="13" lengthAdjust="spacing" textLength="8" x="604.3994" y="107.6773">1</text><text fill="#000000" font-family="sans-serif" font-size="13" lengthAdjust="spacing" textLength="8" x="485.9054" y="167.4343">1</text></g><!--MD5=[d2e44e5dc480aaf94e64b461bb403828]
reverse link MagicGame to MagicAdventureApp--><g id="link_MagicGame_MagicAdventureApp"><path codeLine="53" d="M672.67,92.62 C656.24,127.41 633.74,175.06 619.17,205.94 " fill="none" id="MagicGame-backto-MagicAdventureApp" style="stroke:#181818;stroke-width:1.0;stroke-dasharray:7.0,7.0;"/><polygon fill="#181818" points="674.84,88.02,667.3836,94.4545,672.7076,92.5425,674.6196,97.8664,674.84,88.02" style="stroke:#181818;stroke-width:1.0;"/><text fill="#000000" font-family="sans-serif" font-size="13" lengthAdjust="spacing" textLength="37" x="661.5" y="131.0669">starts</text></g><!--MD5=[ed418b758021b313bb3c37126f3bbfc1]
reverse link MagicGame to Stopwatch--><g id="link_MagicGame_Stopwatch"><path codeLine="54" d="M714.62,92.74 C726.1,116.77 740.49,146.92 753.15,173.43 " fill="none" id="MagicGame-backto-Stopwatch" style="stroke:#181818;stroke-width:1.0;stroke-dasharray:7.0,7.0;"/><polygon fill="#181818" points="712.37,88.02,712.6413,97.8651,714.5258,92.5314,719.8595,94.4159,712.37,88.02" style="stroke:#181818;stroke-width:1.0;"/><text fill="#000000" font-family="sans-serif" font-size="13" lengthAdjust="spacing" textLength="30" x="734.5" y="131.0669">uses</text></g><!--MD5=[c4da5cc0e585e0c6655cc4c6dfb4a4ab]
link Magician to Spell--><g id="link_Magician_Spell"><path codeLine="55" d="M319.5593,320.4011 C319.5593,320.4011 286.26,359.71 270.76,378 " fill="none" id="Magician-Spell" style="stroke:#181818;stroke-width:1.0;"/><polygon fill="#181818" points="262.29,388,271.1603,383.7202,265.5227,384.1856,265.0572,378.5479,262.29,388" style="stroke:#181818;stroke-width:1.0;"/><line style="stroke:#181818;stroke-width:1.0;" x1="265.5227" x2="270.695" y1="384.1856" y2="378.075"/><polygon fill="#181818" points="327.31,311.24,320.3809,313.237,319.5593,320.4011,326.4884,318.4041,327.31,311.24" style="stroke:#181818;stroke-width:1.0;"/><text fill="#000000" font-family="sans-serif" font-size="13" lengthAdjust="spacing" textLength="8" x="313.3003" y="330.7663">1</text><text fill="#000000" font-family="sans-serif" font-size="13" lengthAdjust="spacing" textLength="7" x="261.1048" y="376.7216">*</text></g><!--MD5=[18324ccd2752aad6618858b0b88c301a]
link SpellClass1 to Spell--><g id="link_SpellClass1_Spell"><path codeLine="56" d="M78.4,262.15 C96.34,288.25 126.51,332.16 153.28,371.12 " fill="none" id="SpellClass1-to-Spell" style="stroke:#181818;stroke-width:1.0;"/><polygon fill="none" points="159.13,367.29,164.69,387.74,147.6,375.22,159.13,367.29" style="stroke:#181818;stroke-width:1.0;"/><text fill="#000000" font-family="sans-serif" font-size="13" lengthAdjust="spacing" textLength="47" x="145.5" y="354.0669">inherits</text></g><!--MD5=[9fb9d7b44a815d43eab56977e93e7497]
link SpellClass2 to Spell--><g id="link_SpellClass2_Spell"><path codeLine="57" d="M208.5,262.15 C208.5,287.49 208.5,329.62 208.5,367.71 " fill="none" id="SpellClass2-to-Spell" style="stroke:#181818;stroke-width:1.0;"/><polygon fill="none" points="215.5,367.74,208.5,387.74,201.5,367.74,215.5,367.74" style="stroke:#181818;stroke-width:1.0;"/><text fill="#000000" font-family="sans-serif" font-size="13" lengthAdjust="spacing" textLength="47" x="209.5" y="354.0669">inherits</text></g><!--MD5=[7e5db3daf39cc3b00761865fa2f3b662]
@startuml

class Magician{
- name: string
- experiencePoints: int
- lifePoints:int
- spells: Array

+ Magician(String name)
+ getLevel()
}
class MagicAdventureApp {
+ main() starts the game
}
abstract class Spell {
- incantation: string
- level: int
- damage: int
- hitProbability: int

+ train()
}
class SpellClass1
class SpellClass2
class MasterWizard{
+ create(Magician)
+ teach(Magician)
}
class MagicGame{
- magician

+ MagicGame(Magician)
}
class Stopwatch {
- start
- end

+ start()
+ stop()
+ getDiff()
}
class Monster{
- name: string
- level: int
- lifePoints: int
- attackDamage: int
}



MasterWizard ..> Magician :creates & teaches
MagicGame ..> Monster :creates
MagicGame "1" *- -> "1" Magician
MagicGame <.. MagicAdventureApp: starts
MagicGame <.. Stopwatch: uses
Magician "1" *- -> "*" Spell
SpellClass1 - -|> Spell :inherits
SpellClass2 - -|> Spell :inherits



@enduml

PlantUML version 1.2022.6(Tue Jun 21 19:34:49 CEST 2022)
(GPL source distribution)
Java Runtime: OpenJDK Runtime Environment
JVM: OpenJDK 64-Bit Server VM
Default Encoding: UTF-8
Language: de
Country: DE
--></g></svg>